<svg width="24" height="24" viewBox="0 0 24 24" fill="none" xmlns="http://www.w3.org/2000/svg">
<path d="M21.2242 11.8995C21.2242 11.6484 21.1237 11.4173 20.9229 11.2265L14.2632 4.58698C14.0423 4.366 13.8313 4.28564 13.5903 4.28564C13.098 4.28564 12.7163 4.64725 12.7163 5.14948C12.7163 5.39055 12.7967 5.62158 12.9575 5.78229L15.2075 8.07248L19.1951 11.7086L19.3961 11.2064L16.1617 11.0055H3.45522C2.9329 11.0055 2.57129 11.3772 2.57129 11.8995C2.57129 12.4218 2.9329 12.7935 3.45522 12.7935H16.1617L19.3961 12.5926L19.1951 12.1004L15.2075 15.7265L12.9575 18.0166C12.7967 18.1673 12.7163 18.4084 12.7163 18.6495C12.7163 19.1518 13.098 19.5133 13.5903 19.5133C13.8313 19.5133 14.0423 19.423 14.2432 19.2321L20.9229 12.5725C21.1237 12.3816 21.2242 12.1506 21.2242 11.8995Z" fill="#737261"/>
</svg>
