<svg width="18" height="12" viewBox="0 0 18 12" fill="none" xmlns="http://www.w3.org/2000/svg">
<path d="M9.15751 11.5547C9.40865 11.5547 9.65971 11.4542 9.83054 11.2634L17.6051 3.29799C17.7758 3.12723 17.8763 2.90624 17.8763 2.65513C17.8763 2.1328 17.4845 1.73102 16.9622 1.73102C16.7111 1.73102 16.4801 1.83147 16.3093 1.99218L8.61509 9.85713H9.68988L1.99567 1.99218C1.83496 1.83147 1.60393 1.73102 1.34278 1.73102C0.820452 1.73102 0.428711 2.1328 0.428711 2.65513C0.428711 2.90624 0.529158 3.12723 0.699916 3.30803L8.47447 11.2634C8.66532 11.4542 8.89635 11.5547 9.15751 11.5547Z" fill="#10180C"/>
</svg>
