<svg width="24" height="26" viewBox="0 0 24 26" fill="none" xmlns="http://www.w3.org/2000/svg">
<path d="M7.63742 11.0815C8.10952 11.0815 8.49121 10.6998 8.49121 10.2277C8.49121 9.75554 8.10952 9.37385 7.63742 9.37385C7.17536 9.37385 6.78362 9.76565 6.78362 10.2277C6.78362 10.6897 7.17536 11.0815 7.63742 11.0815ZM7.63742 14.6373C8.10952 14.6373 8.49121 14.2555 8.49121 13.7835C8.49121 13.3114 8.10952 12.9397 7.63742 12.9397C7.16532 12.9397 6.78362 13.3214 6.78362 13.7835C6.78362 14.2555 7.16532 14.6373 7.63742 14.6373ZM7.63742 18.404C8.10952 18.404 8.49121 18.0223 8.49121 17.5502C8.49121 17.0781 8.10952 16.6964 7.63742 16.6964C7.17536 16.6964 6.78362 17.0881 6.78362 17.5502C6.78362 18.0123 7.17536 18.404 7.63742 18.404ZM10.3193 10.8505H16.3461C16.6877 10.8505 16.9689 10.5692 16.9689 10.2277C16.9689 9.88617 16.6877 9.59482 16.3461 9.59482H10.3193C9.97781 9.59482 9.68652 9.88617 9.68652 10.2277C9.68652 10.5692 9.97781 10.8505 10.3193 10.8505ZM10.3193 14.4163H16.3461C16.6977 14.4163 16.9689 14.135 16.9689 13.7835C16.9689 13.4419 16.6977 13.1707 16.3461 13.1707H10.3193C9.96778 13.1707 9.68652 13.4419 9.68652 13.7835C9.68652 14.135 9.96778 14.4163 10.3193 14.4163ZM10.3193 18.173H16.3461C16.6877 18.173 16.9689 17.8917 16.9689 17.5502C16.9689 17.2087 16.6977 16.9274 16.3461 16.9274H10.3193C9.96778 16.9274 9.68652 17.2087 9.68652 17.5502C9.68652 17.8917 9.97781 18.173 10.3193 18.173ZM6.54255 24.481H17.2099C19.2892 24.481 20.3238 23.4364 20.3238 21.327V6.09933C20.3238 4.04018 19.3294 2.94531 17.3204 2.94531H17.0794C17.0894 3.02566 17.0894 3.11607 17.0894 3.19642V4.10044C17.0894 4.26116 17.0794 4.42187 17.0492 4.5625H17.2903C18.2345 4.5625 18.7066 5.17522 18.7066 6.11942V21.3069C18.7066 22.3114 18.1742 22.8638 17.1296 22.8638H6.62291C5.57826 22.8638 5.0459 22.3114 5.0459 21.3069V6.11942C5.0459 5.17522 5.518 4.5625 6.46219 4.5625H6.70326C6.67313 4.42187 6.66309 4.26116 6.66309 4.10044V3.19642C6.66309 3.11607 6.66309 3.02566 6.67313 2.94531H6.43206C4.42313 2.94531 3.42871 4.04018 3.42871 6.09933V21.327C3.42871 23.4364 4.46331 24.481 6.54255 24.481ZM8.77247 5.24553H14.9801C15.5626 5.24553 15.9142 4.87388 15.9142 4.25111V3.19642C15.9142 2.57366 15.5626 2.202 14.9801 2.202H14.0559C13.9856 1.06696 13.0414 0.142853 11.8763 0.142853C10.7111 0.142853 9.76688 1.06696 9.69657 2.202H8.77247C8.18987 2.202 7.83831 2.57366 7.83831 3.19642V4.25111C7.83831 4.87388 8.18987 5.24553 8.77247 5.24553ZM11.8763 3.15624C11.3941 3.15624 11.0024 2.75446 11.0024 2.28236C11.0024 1.79018 11.3941 1.39843 11.8763 1.39843C12.3584 1.39843 12.7501 1.79018 12.7501 2.28236C12.7501 2.75446 12.3584 3.15624 11.8763 3.15624Z" fill="#10180C"/>
</svg>
