<svg width="24" height="24" viewBox="0 0 24 24" fill="none" xmlns="http://www.w3.org/2000/svg">
<g clip-path="url(#clip0_48_5189)">
<path d="M3.37486 21.9274C3.82687 21.9274 4.18848 21.5558 4.18848 21.1138V17.7288H7.7041C8.27665 17.7288 8.69852 17.3069 8.69852 16.7343V13.2188H12.2141C12.7867 13.2188 13.2186 12.7969 13.2186 12.2243V8.70869H16.7242C17.3068 8.70869 17.7287 8.28681 17.7287 7.71427V4.1886H21.1037C21.5556 4.1886 21.9173 3.82699 21.9173 3.38503C21.9173 2.94306 21.5556 2.57141 21.1037 2.57141H17.1059C16.5334 2.57141 16.1115 3.00333 16.1115 3.57588V7.0915H12.5958C12.0233 7.0915 11.6015 7.51337 11.6015 8.08592V11.6016H8.07576C7.50321 11.6016 7.08133 12.0234 7.08133 12.606V16.1116H3.56571C2.99316 16.1116 2.57129 16.5435 2.57129 17.1161V21.1138C2.57129 21.5558 2.9329 21.9274 3.37486 21.9274Z" fill="#737261"/>
</g>
<defs>
<clipPath id="clip0_48_5189">
<rect width="19.346" height="19.3761" fill="white" transform="translate(2.57129 2.57141)"/>
</clipPath>
</defs>
</svg>
