<svg width="20" height="23" viewBox="0 0 20 23" fill="none" xmlns="http://www.w3.org/2000/svg">
<path d="M6.33691 4.64377C6.33691 6.41162 7.53222 7.88818 9.16946 8.30001V14.6583C9.16946 17.6214 9.70183 19.2386 10.1037 19.2386C10.5155 19.2386 11.0378 17.6315 11.0378 14.6583V8.30001C12.6751 7.89822 13.8804 6.41162 13.8804 4.64377C13.8804 2.56453 12.203 0.856934 10.1037 0.856934C8.01437 0.856934 6.33691 2.56453 6.33691 4.64377ZM9.02888 4.8547C8.34584 4.8547 7.74317 4.25203 7.74317 3.54889C7.74317 2.85582 8.34584 2.26318 9.02888 2.26318C9.74203 2.26318 10.3246 2.85582 10.3246 3.54889C10.3246 4.25203 9.74203 4.8547 9.02888 4.8547ZM10.1137 22.915C16.1706 22.915 19.6461 20.8257 19.6461 18.6159C19.6461 15.9641 15.4374 14.3469 12.6751 14.3167V15.7833C14.6137 15.8134 17.617 16.8681 17.617 18.3748C17.617 20.1024 14.4329 21.3279 10.1137 21.3279C5.77441 21.3279 2.61035 20.1226 2.61035 18.3748C2.61035 16.8681 5.60365 15.8134 7.54227 15.7833V14.3167C4.78 14.3469 0.571289 15.9641 0.571289 18.6159C0.571289 20.8257 4.05678 22.915 10.1137 22.915Z" fill="#E9E8E4"/>
</svg>
