<svg width="21" height="21" viewBox="0 0 21 21" xmlns="http://www.w3.org/2000/svg">
<g id="phone" clip-path="url(#clip0_138_543)">
<g id="Group">
<path id="Vector" d="M15.1762 20.2689C16.934 20.2689 18.0891 19.7968 19.1037 18.6518C19.184 18.5714 19.2644 18.4809 19.3347 18.4006C19.9374 17.7276 20.2186 17.0647 20.2186 16.4319C20.2186 15.7087 19.7967 15.0357 18.9027 14.4129L15.9798 12.3838C15.0758 11.7611 14.0211 11.6908 13.1773 12.5245L12.4039 13.298C12.1729 13.529 11.972 13.539 11.751 13.3983C11.2086 13.0569 10.1137 12.1026 9.37037 11.3593C8.58691 10.5859 7.83357 9.72205 7.43178 9.08922C7.3012 8.8582 7.31124 8.66735 7.54227 8.43632L8.30567 7.66289C9.1494 6.81913 9.0791 5.75441 8.45633 4.86043L6.42731 1.93744C5.80455 1.04346 5.13156 0.631634 4.40834 0.621589C3.77553 0.611544 3.11258 0.902839 2.43959 1.50551C2.34919 1.58587 2.26883 1.65618 2.18848 1.7265C1.04339 2.75105 0.571289 3.90618 0.571289 5.64391C0.571289 8.51668 2.33915 12.0123 5.58357 15.2566C8.8079 18.4809 12.3135 20.2689 15.1762 20.2689ZM15.1863 18.7221C12.6249 18.7723 9.34029 16.8035 6.7387 14.212C4.11705 11.6004 2.0579 8.20529 2.10812 5.64391C2.12821 4.539 2.51995 3.58475 3.30343 2.90172C3.37374 2.84146 3.42396 2.79123 3.49428 2.74101C3.79562 2.47985 4.11705 2.33922 4.40834 2.33922C4.69964 2.33922 4.96079 2.44972 5.15165 2.75105L7.10031 5.67404C7.31124 5.98543 7.33133 6.33699 7.01995 6.64837L6.13602 7.5323C5.44294 8.22539 5.49317 9.06913 5.99539 9.74211C6.56794 10.5156 7.56236 11.6406 8.33579 12.404C9.09919 13.1774 10.3146 14.2623 11.098 14.8448C11.7711 15.3471 12.6148 15.3973 13.3079 14.7042L14.1918 13.8202C14.5032 13.5089 14.8447 13.529 15.1661 13.7299L18.0891 15.6785C18.3905 15.8794 18.501 16.1305 18.501 16.4319C18.501 16.7232 18.3603 17.0446 18.0992 17.3459C18.0389 17.4162 17.9987 17.4664 17.9385 17.5368C17.2554 18.3202 16.3012 18.7019 15.1863 18.7221Z" fill="currentColor"/>
</g>
</g>
<defs>
<clipPath id="clip0_138_543">
<rect width="19.6473" height="19.6976" transform="translate(0.571289 0.571533)"/>
</clipPath>
</defs>
</svg>
