<svg width="26" height="18" viewBox="0 0 26 18" fill="none" xmlns="http://www.w3.org/2000/svg">
<g clip-path="url(#clip0_48_5180)">
<path d="M0.996861 17.3739H1.59954C2.11182 17.3739 2.45333 17.0424 2.45333 16.5201V15.0335C2.56383 15.0636 2.8953 15.0838 3.13637 15.0838H22.6029C22.844 15.0838 23.1754 15.0636 23.2859 15.0335V16.5201C23.2859 17.0424 23.6274 17.3739 24.1397 17.3739H24.7424C25.2647 17.3739 25.5962 17.0424 25.5962 16.5201V9.63953C25.5962 7.721 24.5516 6.6864 22.633 6.6864H3.10624C1.18771 6.6864 0.143066 7.721 0.143066 9.63953V16.5201C0.143066 17.0424 0.47454 17.3739 0.996861 17.3739ZM2.15199 13.6172C1.94106 13.6172 1.81047 13.4665 1.81047 13.2255V9.40853C1.81047 8.64511 2.31271 8.15292 3.09619 8.15292H22.6531C23.4266 8.15292 23.9288 8.64511 23.9288 9.40853V13.2255C23.9288 13.4665 23.7982 13.6172 23.5873 13.6172H2.15199ZM2.75468 6.89734H5.39642V4.82814C5.39642 3.89399 5.91874 3.38171 6.87298 3.38171H10.3986C11.3428 3.38171 11.8652 3.89399 11.8652 4.82814V6.89734H13.8741V4.82814C13.8741 3.89399 14.3964 3.38171 15.3406 3.38171H18.8663C19.8205 3.38171 20.3428 3.89399 20.3428 4.82814V6.89734H22.9846V3.24109C22.9846 1.38283 21.9902 0.428589 20.1821 0.428589H5.55713C3.75914 0.428589 2.75468 1.38283 2.75468 3.24109V6.89734Z" fill="#737261"/>
</g>
<defs>
<clipPath id="clip0_48_5180">
<rect width="25.4531" height="16.9654" fill="white" transform="translate(0.143066 0.428589)"/>
</clipPath>
</defs>
</svg>
