<svg width="24" height="24" viewBox="0 0 24 24" fill="none" xmlns="http://www.w3.org/2000/svg">
<g clip-path="url(#clip0_48_5186)">
<path d="M9.09043 20.9189H14.8862V13.6063C14.8862 13.1443 14.5848 12.8429 14.1228 12.8429H9.86383C9.39171 12.8429 9.09043 13.1443 9.09043 13.6063V20.9189ZM5.16295 21.9534H18.7533C20.1797 21.9534 21.0134 21.1398 21.0134 19.7336V8.63424L19.3962 7.52933V19.3217C19.3962 19.9746 19.0447 20.3363 18.4119 20.3363H5.50447C4.86161 20.3363 4.51005 19.9746 4.51005 19.3217V7.53938L2.89286 8.63424V19.7336C2.89286 21.1398 3.72657 21.9534 5.16295 21.9534ZM0 10.7737C0 11.1856 0.321429 11.5773 0.863837 11.5773C1.14509 11.5773 1.37612 11.4267 1.58705 11.2559L11.6417 2.8184C11.8627 2.6175 12.1339 2.6175 12.3549 2.8184L22.4096 11.2559C22.6105 11.4267 22.8415 11.5773 23.1228 11.5773C23.5948 11.5773 23.9766 11.286 23.9766 10.8039C23.9766 10.5025 23.8761 10.3017 23.6652 10.1208L13.2087 1.33179C12.4654 0.698975 11.5413 0.698975 10.7879 1.33179L0.321429 10.1208C0.100447 10.3017 0 10.5427 0 10.7737ZM18.4922 6.24362L21.0134 8.37308V3.73245C21.0134 3.29049 20.7321 3.00924 20.2902 3.00924H19.2154C18.7835 3.00924 18.4922 3.29049 18.4922 3.73245V6.24362Z" fill="#737261"/>
</g>
<defs>
<clipPath id="clip0_48_5186">
<rect width="23.9766" height="22.7963" fill="white" transform="translate(0 0.857178)"/>
</clipPath>
</defs>
</svg>
