<svg width="24" height="24" viewBox="0 0 24 24" fill="none" xmlns="http://www.w3.org/2000/svg">
<path d="M14.3337 23.1396H21.9676C22.9821 23.1396 23.625 22.4264 23.625 21.3115V8.49449C23.625 7.37953 22.9821 6.66636 21.9676 6.66636H15.0569V8.28355H21.4353C21.827 8.28355 22.0078 8.4744 22.0078 8.86614V20.9398C22.0078 21.3315 21.827 21.5224 21.4353 21.5224H14.3337V23.1396ZM18.1909 12.191H19.8081C20.009 12.191 20.1495 12.0503 20.1495 11.8494V10.2824C20.1495 10.0815 20.009 9.94092 19.8081 9.94092H18.1909C17.9799 9.94092 17.8593 10.0815 17.8593 10.2824V11.8494C17.8593 12.0503 17.9799 12.191 18.1909 12.191ZM18.1909 16.028H19.8081C20.009 16.028 20.1495 15.8874 20.1495 15.6865V14.1195C20.1495 13.9186 20.009 13.778 19.8081 13.778H18.1909C17.9799 13.778 17.8593 13.9186 17.8593 14.1195V15.6865C17.8593 15.8874 17.9799 16.028 18.1909 16.028ZM18.1909 19.865H19.8081C20.009 19.865 20.1495 19.7244 20.1495 19.5235V17.9565C20.1495 17.7556 20.009 17.615 19.8081 17.615H18.1909C17.9799 17.615 17.8593 17.7556 17.8593 17.9565V19.5235C17.8593 19.7244 17.9799 19.865 18.1909 19.865ZM0 21.3115C0 22.4264 0.642857 23.1396 1.66741 23.1396H14.3337C15.3482 23.1396 15.991 22.4264 15.991 21.3115V3.55252C15.991 2.43757 15.3482 1.7244 14.3337 1.7244H1.66741C0.642857 1.7244 0 2.43757 0 3.55252V21.3115ZM1.61719 20.9398V3.92417C1.61719 3.52239 1.79799 3.34159 2.19978 3.34159H13.8014C14.1931 3.34159 14.3739 3.52239 14.3739 3.92417V20.9398C14.3739 21.3315 14.1931 21.5224 13.8014 21.5224H2.19978C1.79799 21.5224 1.61719 21.3315 1.61719 20.9398ZM4.5 22.2858H5.81585V18.9308C5.81585 18.7199 5.92634 18.6094 6.13728 18.6094H9.8538C10.0748 18.6094 10.1752 18.7199 10.1752 18.9308V22.2858H11.491V18.5592C11.491 17.6954 11.1093 17.2936 10.2857 17.2936H5.70536C4.88169 17.2936 4.5 17.6954 4.5 18.5592V22.2858ZM4.66071 7.73109H6.61942C6.86049 7.73109 7.03125 7.57038 7.03125 7.31926V5.42083C7.03125 5.17975 6.86049 5.00899 6.61942 5.00899H4.66071C4.41964 5.00899 4.26897 5.17975 4.26897 5.42083V7.31926C4.26897 7.57038 4.41964 7.73109 4.66071 7.73109ZM9.37166 7.73109H11.3203C11.5614 7.73109 11.7321 7.57038 11.7321 7.31926V5.42083C11.7321 5.17975 11.5614 5.00899 11.3203 5.00899H9.37166C9.12051 5.00899 8.96983 5.17975 8.96983 5.42083V7.31926C8.96983 7.57038 9.12051 7.73109 9.37166 7.73109ZM4.66071 11.7088H6.61942C6.86049 11.7088 7.03125 11.5481 7.03125 11.297V9.3985C7.03125 9.15743 6.86049 8.98668 6.61942 8.98668H4.66071C4.41964 8.98668 4.26897 9.15743 4.26897 9.3985V11.297C4.26897 11.5481 4.41964 11.7088 4.66071 11.7088ZM9.37166 11.7088H11.3203C11.5614 11.7088 11.7321 11.5481 11.7321 11.297V9.3985C11.7321 9.15743 11.5614 8.98668 11.3203 8.98668H9.37166C9.12051 8.98668 8.96983 9.15743 8.96983 9.3985V11.297C8.96983 11.5481 9.12051 11.7088 9.37166 11.7088ZM4.66071 15.6865H6.61942C6.86049 15.6865 7.03125 15.5157 7.03125 15.2746V13.3762C7.03125 13.1251 6.86049 12.9644 6.61942 12.9644H4.66071C4.41964 12.9644 4.26897 13.1251 4.26897 13.3762V15.2746C4.26897 15.5157 4.41964 15.6865 4.66071 15.6865ZM9.37166 15.6865H11.3203C11.5614 15.6865 11.7321 15.5157 11.7321 15.2746V13.3762C11.7321 13.1251 11.5614 12.9644 11.3203 12.9644H9.37166C9.12051 12.9644 8.96983 13.1251 8.96983 13.3762V15.2746C8.96983 15.5157 9.12051 15.6865 9.37166 15.6865Z" fill="#10180C"/>
</svg>
