<svg width="25" height="24" viewBox="0 0 25 24" fill="none" xmlns="http://www.w3.org/2000/svg">
<path d="M3.07129 9.72992C3.07129 14.1496 6.66727 17.7455 11.0869 17.7455C12.8347 17.7455 14.4318 17.1831 15.7477 16.2388L20.6896 21.1909C20.9206 21.4219 21.222 21.5324 21.5434 21.5324C22.2265 21.5324 22.6985 21.0201 22.6985 20.3471C22.6985 20.0257 22.578 19.7344 22.367 19.5234L17.4552 14.5815C18.4898 13.2355 19.1025 11.5581 19.1025 9.72992C19.1025 5.31027 15.5065 1.71429 11.0869 1.71429C6.66727 1.71429 3.07129 5.31027 3.07129 9.72992ZM4.78893 9.72992C4.78893 6.25448 7.61147 3.43193 11.0869 3.43193C14.5623 3.43193 17.3849 6.25448 17.3849 9.72992C17.3849 13.2053 14.5623 16.0279 11.0869 16.0279C7.61147 16.0279 4.78893 13.2053 4.78893 9.72992Z" fill="#E9E8E4"/>
</svg>
