<svg width="24" height="25" viewBox="0 0 24 25" fill="none" xmlns="http://www.w3.org/2000/svg">
<g clip-path="url(#clip0_48_5152)">
<path d="M1.71436 9.75112C1.71436 14.0302 5.30029 18.2388 10.9655 21.8549C11.1764 21.9855 11.4777 22.1261 11.6887 22.1261C11.8996 22.1261 12.201 21.9855 12.422 21.8549C18.077 18.2388 21.663 14.0302 21.663 9.75112C21.663 6.19532 19.2222 3.68416 15.9677 3.68416C14.1094 3.68416 12.6027 4.56808 11.6887 5.92411C10.7948 4.57813 9.26793 3.68416 7.40967 3.68416C4.15521 3.68416 1.71436 6.19532 1.71436 9.75112ZM3.33154 9.75112C3.33154 7.07925 5.05922 5.30134 7.38958 5.30134C9.27797 5.30134 10.3628 6.47657 11.0056 7.48103C11.2768 7.88282 11.4476 7.99331 11.6887 7.99331C11.9298 7.99331 12.0805 7.87277 12.3717 7.48103C13.0648 6.49665 14.1094 5.30134 15.9878 5.30134C18.3182 5.30134 20.0458 7.07925 20.0458 9.75112C20.0458 13.4877 16.0982 17.5157 11.8996 20.3081C11.7992 20.3783 11.7289 20.4286 11.6887 20.4286C11.6485 20.4286 11.5782 20.3783 11.4878 20.3081C7.27909 17.5157 3.33154 13.4877 3.33154 9.75112Z" fill="#10180C"/>
</g>
<defs>
<clipPath id="clip0_48_5152">
<rect width="19.9486" height="19.0547" fill="white" transform="translate(1.71436 3.07143)"/>
</clipPath>
</defs>
</svg>
