<svg width="24" height="24" viewBox="0 0 24 24" xmlns="http://www.w3.org/2000/svg">
<path d="M8.33691 4.64401C8.33691 6.41187 9.53222 7.88842 11.1695 8.30025V14.6586C11.1695 17.6217 11.7018 19.2389 12.1037 19.2389C12.5155 19.2389 13.0378 17.6317 13.0378 14.6586V8.30025C14.6751 7.89847 15.8804 6.41187 15.8804 4.64401C15.8804 2.56477 14.203 0.857178 12.1037 0.857178C10.0144 0.857178 8.33691 2.56477 8.33691 4.64401ZM11.0289 4.85494C10.3458 4.85494 9.74317 4.25227 9.74317 3.54914C9.74317 2.85606 10.3458 2.26342 11.0289 2.26342C11.742 2.26342 12.3246 2.85606 12.3246 3.54914C12.3246 4.25227 11.742 4.85494 11.0289 4.85494ZM12.1137 22.9152C18.1706 22.9152 21.6461 20.8259 21.6461 18.6161C21.6461 15.9643 17.4374 14.3471 14.6751 14.317V15.7836C16.6137 15.8136 19.617 16.8683 19.617 18.375C19.617 20.1027 16.4329 21.3281 12.1137 21.3281C7.77441 21.3281 4.61035 20.1228 4.61035 18.375C4.61035 16.8683 7.60365 15.8136 9.54227 15.7836V14.317C6.78 14.3471 2.57129 15.9643 2.57129 18.6161C2.57129 20.8259 6.05678 22.9152 12.1137 22.9152Z" fill="currentColor"/>
</svg>
