<svg width="18" height="19" viewBox="0 0 18 19" fill="none" xmlns="http://www.w3.org/2000/svg">
<path d="M2.88965 19.0056H15.5158C17.1832 19.0056 17.9767 18.5034 17.9767 17.3984C17.9767 14.7667 14.652 10.9598 9.20774 10.9598C3.75349 10.9598 0.428711 14.7667 0.428711 17.3984C0.428711 18.5034 1.22224 19.0056 2.88965 19.0056ZM2.41755 17.4888C2.15639 17.4888 2.0459 17.4186 2.0459 17.2076C2.0459 15.5603 4.59724 12.4766 9.20774 12.4766C13.8082 12.4766 16.3595 15.5603 16.3595 17.2076C16.3595 17.4186 16.2591 17.4888 15.9979 17.4888H2.41755ZM9.20774 9.71429C11.5983 9.71429 13.547 7.58482 13.547 4.99331C13.547 2.42188 11.6084 0.402908 9.20774 0.402908C6.82715 0.402908 4.86845 2.46206 4.86845 5.0134C4.87849 7.59487 6.8171 9.71429 9.20774 9.71429ZM9.20774 8.19755C7.74121 8.19755 6.48563 6.7913 6.48563 5.0134C6.48563 3.26563 7.72112 1.91965 9.20774 1.91965C10.7044 1.91965 11.9299 3.24554 11.9299 4.99331C11.9299 6.77121 10.6843 8.19755 9.20774 8.19755Z" fill="#10180C"/>
</svg>
