<svg width="24" height="24" viewBox="0 0 24 24" fill="none" xmlns="http://www.w3.org/2000/svg">
<g clip-path="url(#clip0_48_5115)">
<path d="M17.1762 22.2687C18.934 22.2687 20.0891 21.7966 21.1037 20.6515C21.184 20.5711 21.2644 20.4807 21.3347 20.4004C21.9374 19.7274 22.2186 19.0644 22.2186 18.4316C22.2186 17.7084 21.7967 17.0354 20.9027 16.4126L17.9798 14.3836C17.0758 13.7609 16.0211 13.6906 15.1773 14.5242L14.4039 15.2977C14.1729 15.5287 13.972 15.5387 13.751 15.3981C13.2086 15.0566 12.1137 14.1024 11.3704 13.359C10.5869 12.5856 9.83357 11.7218 9.43178 11.089C9.3012 10.858 9.31124 10.6671 9.54227 10.4361L10.3057 9.66264C11.1494 8.81889 11.0791 7.75416 10.4563 6.86019L8.42731 3.93719C7.80455 3.04322 7.13156 2.63139 6.40834 2.62134C5.77553 2.6113 5.11258 2.9026 4.43959 3.50527C4.34919 3.58563 4.26883 3.65594 4.18848 3.72626C3.04339 4.75081 2.57129 5.90594 2.57129 7.64367C2.57129 10.5164 4.33915 14.012 7.58357 17.2564C10.8079 20.4807 14.3135 22.2687 17.1762 22.2687ZM17.1863 20.7218C14.6249 20.772 11.3403 18.8033 8.7387 16.2118C6.11705 13.6002 4.0579 10.2051 4.10812 7.64367C4.12821 6.53876 4.51995 5.58451 5.30343 4.90148C5.37374 4.84121 5.42396 4.79098 5.49428 4.74076C5.79562 4.4796 6.11705 4.33898 6.40834 4.33898C6.69964 4.33898 6.96079 4.44947 7.15165 4.75081L9.10031 7.6738C9.31124 7.98519 9.33133 8.33674 9.01995 8.64813L8.13602 9.53206C7.44294 10.2251 7.49317 11.0689 7.99539 11.7419C8.56794 12.5154 9.56236 13.6404 10.3358 14.4037C11.0992 15.1771 12.3146 16.262 13.098 16.8445C13.7711 17.3468 14.6148 17.397 15.3079 16.704L16.1918 15.82C16.5032 15.5087 16.8447 15.5287 17.1661 15.7296L20.0891 17.6783C20.3905 17.8792 20.501 18.1302 20.501 18.4316C20.501 18.723 20.3603 19.0444 20.0992 19.3457C20.0389 19.416 19.9987 19.4662 19.9385 19.5366C19.2554 20.32 18.3012 20.7017 17.1863 20.7218Z" fill="#E9E8E4"/>
</g>
<defs>
<clipPath id="clip0_48_5115">
<rect width="19.6473" height="19.6976" fill="white" transform="translate(2.57129 2.57129)"/>
</clipPath>
</defs>
</svg>
