<svg width="37" height="37" viewBox="0 0 37 37" fill="none" xmlns="http://www.w3.org/2000/svg">
<g clip-path="url(#clip0_48_4895)">
<path d="M24.075 31.639C26.034 31.639 27.6367 30.0362 27.6367 28.0774C27.6367 26.1184 26.034 24.5157 24.075 24.5157C22.1161 24.5157 20.4985 26.1184 20.4985 28.0774C20.4985 30.0362 22.1161 31.639 24.075 31.639ZM24.075 29.8137C23.0956 29.8137 22.3387 29.042 22.3387 28.0774C22.3387 27.083 23.0956 26.3411 24.075 26.3411C25.0544 26.3411 25.8113 27.083 25.8113 28.0774C25.8113 29.042 25.0544 29.8137 24.075 29.8137ZM21.7154 26.8753H4.99044C4.32263 26.8753 3.80322 27.4095 3.80322 28.0774C3.80322 28.7451 4.32263 29.2646 4.99044 29.2646H21.7154V26.8753ZM32.5636 26.8753H26.6573V29.2646H32.5636C33.1721 29.2646 33.7064 28.7451 33.7064 28.0774C33.7064 27.4095 33.1721 26.8753 32.5636 26.8753ZM13.5978 22.5864C15.5567 22.5864 17.1595 20.9689 17.1595 19.0099C17.1595 17.051 15.5567 15.4483 13.5978 15.4483C11.6389 15.4483 10.0361 17.051 10.0361 19.0099C10.0361 20.9689 11.6389 22.5864 13.5978 22.5864ZM13.5978 20.7462C12.6332 20.7462 11.8615 19.9745 11.8615 19.0099C11.8615 18.0305 12.6332 17.2736 13.5978 17.2736C14.5773 17.2736 15.3341 18.0305 15.3341 19.0099C15.3341 19.9745 14.5773 20.7462 13.5978 20.7462ZM4.93108 17.8079C4.32263 17.8079 3.80322 18.3421 3.80322 19.0099C3.80322 19.6778 4.32263 20.1971 4.93108 20.1971H11.0453V17.8079H4.93108ZM32.5043 17.8079H15.9574V20.1971H32.5043C33.1721 20.1971 33.7064 19.6778 33.7064 19.0099C33.7064 18.3421 33.1721 17.8079 32.5043 17.8079ZM24.075 13.5042C26.034 13.5042 27.6367 11.9014 27.6367 9.94254C27.6367 7.98362 26.034 6.36603 24.075 6.36603C22.1161 6.36603 20.4985 7.98362 20.4985 9.94254C20.4985 11.9014 22.1161 13.5042 24.075 13.5042ZM24.075 11.6788C23.0956 11.6788 22.3387 10.9072 22.3387 9.92769C22.3387 8.94823 23.0956 8.19138 24.075 8.19138C25.0544 8.19138 25.8113 8.94823 25.8113 9.92769C25.8113 10.9072 25.0544 11.6788 24.075 11.6788ZM21.7896 8.75531H4.99044C4.32263 8.75531 3.80322 9.27472 3.80322 9.94254C3.80322 10.6103 4.32263 11.1446 4.99044 11.1446H21.7896V8.75531ZM32.5636 8.75531H26.4494V11.1446H32.5636C33.1721 11.1446 33.7064 10.6103 33.7064 9.94254C33.7064 9.27472 33.1721 8.75531 32.5636 8.75531Z" fill="#10180C"/>
</g>
<defs>
<clipPath id="clip0_48_4895">
<rect width="29.9032" height="25.3027" fill="white" transform="translate(3.80322 6.33633)"/>
</clipPath>
</defs>
</svg>
